<svg xmlns="http://www.w3.org/2000/svg" id="Layer_1" data-name="Layer 1" viewBox="0 0 1062 400.5"><defs><style>.cls-1{fill:#f1f1f1}.cls-2{fill:#030302}.cls-3{fill:#777}.cls-4{fill:#b7b7b7}.cls-5{fill:#6e3500}.cls-6{fill:#fee8c9}.cls-7{fill:#b16ed0}.cls-9{fill:#fff}.cls-10{fill:#05b11b}.cls-11{fill:#222}</style></defs><path d="M402.7 94.7q12.2 14 12.2 31.4-.5 20-14.1 33.5a45.6 45.6 0 0 1-33.3 13.5h-54.1q-14.4 0-17-7.6c-.7-2.3-1.2-5.7-1.2-10.4v-111a57.8 57.8 0 0 1 .3-7 15.9 15.9 0 0 1 2-5.2q3-5.4 16.1-5.4h51.9q19 0 31.7 12.8 13.4 13 13.4 31.2a40.8 40.8 0 0 1-7.9 24.2zm-24.3 29.4a20.9 20.9 0 0 0-1.1-7.6 7.2 7.2 0 0 0-3.8-4q-4.1-1.6-11.6-1.6t-11-2.8q-3.8-2.8-3.8-11.5t3.8-11.5q3.8-2.8 12.7-2.8 8.2 0 9.9-4.2a29.8 29.8 0 0 0 .6-7.2c0-3.3-1.1-5.7-3.4-7s-5.7-2-10.2-2h-28.8v75.8h33.8q13 0 13-13.6zM491.5 69.1a14 14 0 0 1 6.4 4.1q2.6 2.9 2.6 9.3t-3.9 14q-4 7.6-11.3 7.6a16.4 16.4 0 0 1-7.1-1.6 21.2 21.2 0 0 0-9-1.6 16.5 16.5 0 0 0-10.4 3.8q-4.9 3.8-4.9 9.2v42a55.5 55.5 0 0 1-.3 6.9 15.8 15.8 0 0 1-2 5.3q-3 5.2-16 5.2-9.9 0-14.2-3.4-3.3-2.8-3.7-8.6v-76a57.6 57.6 0 0 1 .3-6.9 16.2 16.2 0 0 1 1.8-5.1q2.8-5.4 16-5.4 12.4 0 15.5 4.6a11.3 11.3 0 0 1 2.2 6.6 33.5 33.5 0 0 1 3-3.4q2-2 8.4-5.4t11.2-3.4a56 56 0 0 1 8.1.5 50.6 50.6 0 0 1 7.3 1.7z" class="cls-1"/><path d="M565.6 79.1q1.2-11.2 16.2-11.2 8 0 12 1.2a8.6 8.6 0 0 1 5.4 4.2 16.7 16.7 0 0 1 1.9 5.3 55.5 55.5 0 0 1 .3 6.9v70a55.5 55.5 0 0 1-.3 6.9 18 18 0 0 1-1.8 5.3q-2.8 5.2-14 5.2t-15-2.7a10.7 10.7 0 0 1-4.5-7.9q-7.6 10.6-25.4 10.6t-33-15.8Q492 141.3 492 120.4t15.4-36.6q15.3-15.7 33.6-15.7a32.9 32.9 0 0 1 12.8 2.4q5.8 2.4 8 4.5a28.2 28.2 0 0 1 3.7 4.1zM528 120.7q0 6.6 5.4 11.9a17.8 17.8 0 0 0 13 5.3 16.6 16.6 0 0 0 12.6-5.4 17 17 0 0 0 5-11.9 18.2 18.2 0 0 0-4.8-12.1q-4.8-5.6-13-5.6a16.9 16.9 0 0 0-13.2 5.6 17.9 17.9 0 0 0-5 12.2zM667.7 67.9A44 44 0 0 1 702 83.2q13.7 15.3 13.7 37.3v35.2a58 58 0 0 1-.3 6.9 16.2 16.2 0 0 1-1.8 5.1q-2.8 5.4-16 5.4-14.6 0-17-7.4c-.7-2.3-1.1-5.7-1.1-10.2v-35.2q0-8.2-4.9-12.8t-13-4.6q-8.1 0-13.2 4.8c-3.3 3.2-5 7.4-5 12.6v35.4a57.6 57.6 0 0 1-.3 6.9 14 14 0 0 1-2 5.1q-2.6 5.4-15.8 5.4-13 0-15.9-5.4a18.2 18.2 0 0 1-1.7-5.3 57.6 57.6 0 0 1-.3-6.9V84.7a55.4 55.4 0 0 1 .3-6.7 14 14 0 0 1 2-5.1q2.9-5 15.8-5 12.6 0 15.5 4.6a15.6 15.6 0 0 1 2 8.2 20.7 20.7 0 0 1 3.7-4 36 36 0 0 1 5.6-4.2 27.5 27.5 0 0 1 15.4-4.6zM794.4 24a8.7 8.7 0 0 1 5.5-4.1 45.7 45.7 0 0 1 20.8 0 8.6 8.6 0 0 1 5.4 4.2 17 17 0 0 1 1.9 5.3 55.5 55.5 0 0 1 .3 6.9v119.4a55.5 55.5 0 0 1-.3 6.9 14 14 0 0 1-2 5.1q-3 5.4-17.4 5.4t-16-9.8q-8.7 9.6-24 9.6-18.6 0-33.9-15.7t-15.2-36.6q0-20.9 15.3-36.7t33.7-15.8q15.2 0 23.7 10v-42a55.5 55.5 0 0 1 .3-6.9 15.7 15.7 0 0 1 2-5.2zM761 132.7a17.6 17.6 0 0 0 13 5.4 16.6 16.6 0 0 0 12.7-5.4 17 17 0 0 0 5-11.9 18.2 18.2 0 0 0-4.9-12.1q-4.8-5.6-13-5.6t-13.2 5.5a17.7 17.7 0 0 0-5 12.1q0 6.6 5.4 12zM848.5 81.1q17.3-15.6 39.5-15.6T927.3 81q17.1 15.5 17.1 39.5a50.9 50.9 0 0 1-8.8 29.5 55 55 0 0 1-21.5 19 59.7 59.7 0 0 1-26.3 6.1 58 58 0 0 1-47.9-25.7 49.4 49.4 0 0 1-8.7-28.7q0-24 17.3-39.6zm25.7 53.9q6.6 5 13.4 4.9t13.6-5q6.8-5 6.8-14.8t-6.4-14.6a22.5 22.5 0 0 0-13.8-4.8 22 22 0 0 0-13.8 5q-6.4 5-6.4 14.7t6.6 14.6zM1007.6 67.9a44 44 0 0 1 34.3 15.3q13.7 15.3 13.7 37.3v35.2a57.6 57.6 0 0 1-.3 6.9 16.2 16.2 0 0 1-1.7 5.1q-3 5.4-16.1 5.4-14.6 0-16.9-7.4c-.8-2.3-1.2-5.7-1.2-10.2v-35.2q0-8.2-4.9-12.8t-13-4.6q-8.1 0-13.1 4.8c-3.4 3.2-5 7.4-5 12.6v35.4a57.6 57.6 0 0 1-.4 6.9 14 14 0 0 1-2 5.1q-2.6 5.4-15.8 5.4-13 0-15.9-5.4a18.2 18.2 0 0 1-1.7-5.3 57.6 57.6 0 0 1-.3-6.9V84.7a55.4 55.4 0 0 1 .3-6.7 14 14 0 0 1 2-5.1q2.9-5 15.8-5 12.6 0 15.5 4.6a15.5 15.5 0 0 1 2 8.2 20.7 20.7 0 0 1 3.7-4 36 36 0 0 1 5.6-4.2 27.5 27.5 0 0 1 15.4-4.6zM373.9 264.9H410q11.1.4 13.6 5.6 2 3.8 2 11.2v44q0 6.4-5.7 12.2-17.3 17.4-51.9 17.4-30.7 0-53.3-22.5t-22.6-54.3q0-31.8 23-53.1t54.4-21.3q24.3 0 45.9 15.6 5.5 4 5.5 8.9t-4.7 11.3q-8 10.6-14.6 10.6-4 0-12.6-5.5t-20.6-5.5a40.9 40.9 0 0 0-27.8 10.7q-12.1 10.7-12.1 28a39.6 39.6 0 0 0 12.4 29.4q12.3 12.1 28 12.1a54.8 54.8 0 0 0 20.4-3.6v-21.8H373q-6.4 0-9-1.6a7.5 7.5 0 0 1-3.6-4.7 34 34 0 0 1-.8-8.4 31.4 31.4 0 0 1 1-8.5 6.6 6.6 0 0 1 3.3-4.4 22.8 22.8 0 0 1 9.9-1.8zM465.6 228.4a8.7 8.7 0 0 1-5.4 4.1 45.7 45.7 0 0 1-20.8 0 8.6 8.6 0 0 1-5.5-4.2 17 17 0 0 1-1.8-5.3 77 77 0 0 1 0-13.8 16.2 16.2 0 0 1 1.7-5.1q2.9-5.4 16-5.4 13 0 15.7 5.4a15.8 15.8 0 0 1 2 5.3 77 77 0 0 1 0 13.8 16 16 0 0 1-1.9 5.2zm-33.9 37.1a57.7 57.7 0 0 1 .4-6.9 18.3 18.3 0 0 1 1.7-5.3q2.9-5.2 16-5.2 10 0 14 3.4 3.6 2.8 3.8 8.6.2 2 .2 5.8v70a57.6 57.6 0 0 1-.3 6.9 15.8 15.8 0 0 1-2 5.3q-2.7 5.2-15.9 5.2-13 0-15.8-5.4a18.4 18.4 0 0 1-1.8-5.2 57.3 57.3 0 0 1-.3-7zM578.3 288q0 12.3-6.2 18.2t-14 5.9h-48.7q0 5.6 6.8 9.4a27.7 27.7 0 0 0 13.5 3.8q12 0 18.8-2.4l2.3-.8a21.2 21.2 0 0 1 8.2-2.2q6.6 0 11.3 9c1.8 3.6 2.7 6.7 2.7 9.2q0 17.8-43.9 17.8-15.2 0-27-5.1t-18.5-13.5a56.5 56.5 0 0 1-13-36.2q0-25.2 16.8-40.3t42-15.1q28.5 0 42 19.6a39.8 39.8 0 0 1 7 22.7zm-43.4 5.9q7.8 0 7.8-6.4a9 9 0 0 0-3.6-7.4q-3.6-2.8-10.3-2.8t-13.3 5.3q-6.5 5.3-6.5 11.3zM582 343.9q-3.9-2.4-3.9-7.6t7.9-15.8c1.5-2.3 4-3.4 7.3-3.4s8 1.6 13.7 4.9 11 4.9 15.7 4.9q12.5 0 12.5-4.8 0-3.8-13.8-5.6a68.6 68.6 0 0 1-25.7-9.4q-6-3.6-10-11.3t-3.8-18.3q0-31.6 44.7-31.6 14.6 0 30 6.8 7.2 3.2 7.2 8t-4.5 11.8q-4.5 7-9.3 7-2.4 0-9.1-3a35 35 0 0 0-14.5-3q-12.2 0-12.2 4.4 0 6 14 7.8a78.3 78.3 0 0 1 26.4 7.6 23 23 0 0 1 10 9.7q4 6.9 4 17.3t-4 17.7a25.7 25.7 0 0 1-11.3 10.9q-13.1 6.2-33 6.2T582 343.9zM705.3 228.4a8.7 8.7 0 0 1-5.5 4.1 45.6 45.6 0 0 1-20.8 0 8.6 8.6 0 0 1-5.4-4.2 16.7 16.7 0 0 1-1.9-5.3 77 77 0 0 1 0-13.8 15.7 15.7 0 0 1 1.8-5.1q2.8-5.4 16-5.4 13 0 15.7 5.4a15.8 15.8 0 0 1 2 5.3 77 77 0 0 1 0 13.8 15.9 15.9 0 0 1-2 5.2zm-33.9 37.1a55.6 55.6 0 0 1 .3-6.9 17.8 17.8 0 0 1 1.8-5.3q2.8-5.2 16-5.2 9.9 0 14 3.4 3.5 2.8 3.7 8.6.2 2 .2 5.8v70a55.5 55.5 0 0 1-.3 6.9 15.8 15.8 0 0 1-2 5.3q-2.6 5.2-15.8 5.2-13 0-15.9-5.4a17.8 17.8 0 0 1-1.7-5.2 55.3 55.3 0 0 1-.3-7zM773.7 247.9a44 44 0 0 1 34.3 15.3q13.7 15.3 13.7 37.3v35.2a55.5 55.5 0 0 1-.3 6.9 16 16 0 0 1-1.8 5.1q-2.8 5.4-16 5.4-14.6 0-17-7.4c-.7-2.3-1.1-5.7-1.1-10.2v-35.2q0-8.2-4.9-12.8t-13-4.6q-8.1 0-13.2 4.8t-5 12.6v35.4a55.5 55.5 0 0 1-.3 6.9 14 14 0 0 1-2 5.1q-2.6 5.4-15.8 5.4-13 0-15.9-5.4a17.7 17.7 0 0 1-1.7-5.3 55.5 55.5 0 0 1-.3-6.9v-70.8a53.4 53.4 0 0 1 .3-6.7 13.8 13.8 0 0 1 2-5.1q2.8-5 15.8-5 12.5 0 15.4 4.6a15.6 15.6 0 0 1 2 8.2 20.9 20.9 0 0 1 3.8-4 37 37 0 0 1 5.5-4.2 27.6 27.6 0 0 1 15.5-4.6zM896.5 340.1q-7.9 10-25 10t-32-15.3q-15-15.3-14.9-35.7t15-35.8q15-15.4 33-15.4a31.7 31.7 0 0 1 12.7 2.5q5.8 2.5 8 4.6a26.3 26.3 0 0 1 3.3 3.9q.7-5.6 4.3-8.5t11.6-2.9q8 0 11.7 1.2a8.7 8.7 0 0 1 5.3 4.1 16.3 16.3 0 0 1 1.8 5.1 55 55 0 0 1 .3 6.8v82.8q0 23-16.4 37.1T878 398.7a63.8 63.8 0 0 1-29.8-7.4q-14.3-7.4-14.3-13.4 0-7.8 6.2-13.8a50.6 50.6 0 0 1 6-5.8 8.2 8.2 0 0 1 5.1-1.6 9.8 9.8 0 0 1 6 2.4 35 35 0 0 0 21.5 7.4 15.8 15.8 0 0 0 12.7-6 22 22 0 0 0 5-14.4zm-36.7-40.9a16 16 0 0 0 5.3 11.7 17.4 17.4 0 0 0 12.7 5.2 16.3 16.3 0 0 0 12.5-5.3 16.7 16.7 0 0 0 5-11.6 17.8 17.8 0 0 0-4.8-11.8q-4.8-5.5-12.8-5.5a16.8 16.8 0 0 0-13 5.4 17.3 17.3 0 0 0-4.9 11.9zM949.8 343.4q1 1 1 4.2v.2a18.1 18.1 0 0 1-.1 2.2 4.7 4.7 0 0 1-.7 1.6q-1 1.8-4.7 1.8t-4.9-1.2c-.8-.7-1.2-2.2-1.2-4.3v-.2a18.3 18.3 0 0 1 0-2.1 4.9 4.9 0 0 1 .7-1.7c.6-1.2 2.2-1.8 4.7-1.8s4.2.5 5.1 1.3zM961.9 337.5a4.8 4.8 0 0 0 1.7 4 5.7 5.7 0 0 0 3.7 1.4 6.5 6.5 0 0 0 3.6-1.1 5.5 5.5 0 0 1 2.8-1.1c1.2 0 2.7 1 4.5 3.2a5.2 5.2 0 0 1 1.4 3q0 2.4-3.4 4.3a15 15 0 0 1-8.7 2.4 18 18 0 0 1-11-4 14.3 14.3 0 0 1-4.1-5 15.6 15.6 0 0 1-1.6-7.2 15.2 15.2 0 0 1 1.6-7 14.5 14.5 0 0 1 4.1-5 17.6 17.6 0 0 1 11-4 16.7 16.7 0 0 1 4.5.6 15.6 15.6 0 0 1 3.3 1.2l1 .6 1.7 1.2a3.4 3.4 0 0 1 1.6 2.7 6.3 6.3 0 0 1-1.3 3.5q-2.2 3.3-4.2 3.3a7.3 7.3 0 0 1-3.4-1.4 4.5 4.5 0 0 0-3.2-1 6 6 0 0 0-3.8 1.5 4.8 4.8 0 0 0-1.8 3.9z" class="cls-1"/><path d="M984.7 325.6a17.2 17.2 0 0 1 11.9-4.6 17 17 0 0 1 11.8 4.7 16.2 16.2 0 0 1 2.4 20.6 16.5 16.5 0 0 1-6.4 5.7 18 18 0 0 1-7.9 1.9 17.4 17.4 0 0 1-14.4-7.7 14.8 14.8 0 0 1-2.6-8.6 15.3 15.3 0 0 1 5.2-12zm7.7 16.2a6.7 6.7 0 0 0 4 1.5 6.9 6.9 0 0 0 4.1-1.5 5.9 5.9 0 0 0 .1-8.8 6.7 6.7 0 0 0-4.1-1.5 6.6 6.6 0 0 0-4.1 1.5 5.3 5.3 0 0 0-2 4.4 5.1 5.1 0 0 0 2 4.4z" class="cls-1"/><path d="M1025 325.9q2.9-4.3 7-4.3a10.2 10.2 0 0 1 9.4 5.2 19.8 19.8 0 0 1 1.6-1.8 13.6 13.6 0 0 1 3-2.2 8.8 8.8 0 0 1 4.4-1.1 10.7 10.7 0 0 1 8.3 3.7q3.3 3.6 3.3 12.1V348a15.1 15.1 0 0 1-.1 2 4.6 4.6 0 0 1-.6 1.7c-.5 1-2.1 1.6-4.7 1.6s-4.2-.6-4.8-1.7a5.4 5.4 0 0 1-.5-1.6 17.4 17.4 0 0 1-.1-2v-10.6q0-5.2-3.8-5.2a3 3 0 0 0-3 1.4 8.1 8.1 0 0 0-.7 3.9V348a17.3 17.3 0 0 1-.1 2.1 4.7 4.7 0 0 1-.6 1.6q-.9 1.6-4.8 1.6c-2.6 0-4.2-.6-4.8-1.7a5.4 5.4 0 0 1-.5-1.6 17.4 17.4 0 0 1-.1-2v-10.6q0-5.2-3.8-5.2t-3.8 5.2v10.7a17.4 17.4 0 0 1 0 2 4.9 4.9 0 0 1-.6 1.6q-1 1.6-4.8 1.6c-2.6 0-4.2-.6-4.8-1.6a5.3 5.3 0 0 1-.5-1.6 15 15 0 0 1-.1-2.1v-21.1a15.1 15.1 0 0 1 0-2 4.1 4.1 0 0 1 .7-1.6q.9-1.6 4.3-1.6c2.3 0 3.9.3 4.6 1a4.3 4.3 0 0 1 1 3.2z" class="cls-1"/><path d="M286.3 230.4v1.8c-.4.4-.4 1-.7 1.5a13.9 13.9 0 0 1-1.9 2.2 96.8 96.8 0 0 1-34.7 21.6l-1.7.5a2 2 0 0 1-2.4-.9l-5.3-8c-.2-.2-.3-.6-.6-.7a3.8 3.8 0 0 0-.3 1.2c-.2 2 0 4.2-.2 6.3a13 13 0 0 1-1 5 2.2 2.2 0 0 1-1 1 13.3 13.3 0 0 1-4.7 1.5 25.4 25.4 0 0 1-3 .2 4 4 0 0 0 1.2.7c4 2 8 3.7 12 5.5a148 148 0 0 1 15.2 7.3 63.9 63.9 0 0 1 18.7 15.9 60.5 60.5 0 0 1 8.9 15.5 19.4 19.4 0 0 1 1.1 5 37.6 37.6 0 0 1-.3 8 74.3 74.3 0 0 0-.7 8 14.9 14.9 0 0 1-.2 2.3 5 5 0 0 1-3.3 4.1l-4.4 1.8a70.7 70.7 0 0 1-14.1 4.6c-3.9.7-7.7 1.8-11.6 2.3a42.1 42.1 0 0 1-7.2.3 3 3 0 0 1-2.7-1.8 7.4 7.4 0 0 1-.7-1.7 14.7 14.7 0 0 1-.4-3l-.2-3.4a4.2 4.2 0 0 0-3.8.9 14.8 14.8 0 0 0-1.9 2 7.2 7.2 0 0 1-2 2 34 34 0 0 0-5 3.3 11.2 11.2 0 0 1-3 1.8 1.8 1.8 0 0 0-1.1 1 31 31 0 0 0-2.2 6.3 73.6 73.6 0 0 1-3.5 11.8l-5.8 14a9.5 9.5 0 0 1-6.8 5.8 59.4 59.4 0 0 1-9 1.4 19.6 19.6 0 0 0-2.3 0H183a4.5 4.5 0 0 1-1.4-1 60.2 60.2 0 0 0 .8-8 21 21 0 0 0-1.1-8 83 83 0 0 1-3 10l-1.3 4a3.3 3.3 0 0 1-3.9 2.4l-2.6-.2c-4.4-.3-8.9-.7-13.3-1.3a10.9 10.9 0 0 1-6.7-3.4 19.3 19.3 0 0 1-2.8-4.1 69.5 69.5 0 0 1-7.4-22.3c-.3-2-.5-3.9.8-5.5a2.9 2.9 0 0 0-.9-.5l-6.3-2.9a57 57 0 0 1-6.7-3.3 20.1 20.1 0 0 1-9-10.7l-.3-.4a1.7 1.7 0 0 0-.2 1v2.5a7.3 7.3 0 0 1-5 7l-.6.2a41 41 0 0 1-4.6 1.4 56.1 56.1 0 0 1-18.3.7l-8.5-1.1a50.5 50.5 0 0 1-7.6-1.4c-2.6-.8-5.3-1.7-8-2.4a11.7 11.7 0 0 1-5-3 16.3 16.3 0 0 1-4.1-7 19.4 19.4 0 0 1-.1-12 63.4 63.4 0 0 1 16-25c3.2-3.2 6.8-6 10.2-8.9a21.6 21.6 0 0 1 6.3-3.9l.2-.1-.1-.2-8.8-.4-12.2-.6a9.8 9.8 0 0 1-9-6.2l-.3-.6-5.3-13.3c-.2-.3-.2-.6-.5-.8a44.3 44.3 0 0 0-.7 5 70.3 70.3 0 0 1-1 8.2 22.2 22.2 0 0 1-1.6 5.2L14.8 263v-.4c.2-2.5-.9-4.3-3.2-5a1.2 1.2 0 0 1-.7-.7 3 3 0 0 1 0-2.8 32.5 32.5 0 0 0 2-19.2 75.9 75.9 0 0 0-2.2-8.7c-2.5-8-4.5-16.2-6.1-24.5-1-4.9-1.8-9.8-2.6-14.7a101.3 101.3 0 0 1-1.5-12.3 13.5 13.5 0 0 0-.3-3.7v-4.8a16.4 16.4 0 0 0 .3-4.1c.1-3.3.4-6.5.8-9.8a127.7 127.7 0 0 1 2.1-14 81 81 0 0 1 6.8-19.2 76.5 76.5 0 0 1 18.3-22.9 63.8 63.8 0 0 1 14.4-9.4A18.2 18.2 0 0 1 49 85l1.8-.2-1-.6a28.4 28.4 0 0 1-5-3.7A17.8 17.8 0 0 1 39 66.9a26.9 26.9 0 0 1 1.9-9.1 7.9 7.9 0 0 1 1.3-2.4 6.8 6.8 0 0 1 5-2.4l-.4.6a21.9 21.9 0 0 0-2.3 3.6 15 15 0 0 0-1.5 10 21.9 21.9 0 0 0 6.3 11.5A29.5 29.5 0 0 0 60 85.2a.3.3 0 0 0 .4 0 43.2 43.2 0 0 1 2-7.7 48 48 0 0 1 10-16C78.2 55 84.5 49 91.1 43a126.3 126.3 0 0 1 15.4-11.7 72.7 72.7 0 0 1 8-4.4 119 119 0 0 1 33.3-9.8 156 156 0 0 1 14.8-1.6 11 11 0 0 0 1.8 0 3.7 3.7 0 0 0 1.7-.2h6a6.6 6.6 0 0 0 2 .2 5.5 5.5 0 0 0 1.3 0 72.9 72.9 0 0 1 15.4 3 107.6 107.6 0 0 1 19 8.3 48.3 48.3 0 0 1 11.7 9 61.7 61.7 0 0 1 10 13.9 138 138 0 0 1 6.8 14.9c1.7 4.5 3.7 8.8 5.1 13.4a36.5 36.5 0 0 1 2.2 12 78.5 78.5 0 0 0 .3 8c.4 4.5 1 9 1.7 13.5a18.2 18.2 0 0 0 .6 3 2.6 2.6 0 0 0 2.7 2 1.3 1.3 0 0 1 .8 0v2.5a1 1 0 0 1-.6 1 7 7 0 0 1-4.8.7c-1.7-.3-3.3-.9-5-1.1a6.5 6.5 0 0 0-3.4.2.6.6 0 0 0 0 .2c0 1 .2 1.9.3 2.8a166.8 166.8 0 0 0 4.9 21.4c2.7 9.2 6 18.2 9.4 27.2 3 7.9 6 15.7 9.6 23.4a87 87 0 0 0 10.2 16.8c3.7 4.7 7.7 9.3 11.3 14.2a13.1 13.1 0 0 1 2.6 4.5zm-100 135a12 12 0 0 0 .5 4.4 8.5 8.5 0 0 1 .2 3.8 13.8 13.8 0 0 0 .2 4.7c.3 1.4.7 2.6 2.6 2.7a32 32 0 0 0 5.7-.2l6.7-1.2 3.4-.7a1 1 0 0 0 1-1 11.5 11.5 0 0 1 1.3-3.3 17 17 0 0 0 1.9-4.3 5.4 5.4 0 0 1 1-2.1 1.9 1.9 0 0 0 .1-.5c.8-1.8 1-3.7 1.8-5.5a10.3 10.3 0 0 0 2-3.2 32.5 32.5 0 0 0 2.2-6.7 31.2 31.2 0 0 0 .7-3.5l-.9.3a53 53 0 0 1-11.8 3.3 100.8 100.8 0 0 1-14.5 1.1h-4.3a11.3 11.3 0 0 0-1.3 4.3 14.4 14.4 0 0 0 1.5 7.6zm-38-1.6a1.6 1.6 0 0 0 .2.7l1.2 3.4a31.1 31.1 0 0 0 3.5 7 8 8 0 0 0 4 3 25.1 25.1 0 0 0 3.5.7 39.5 39.5 0 0 0 7.7.9 28.5 28.5 0 0 0 3.9-.2.8.8 0 0 0 .7-.6 55.3 55.3 0 0 0 2.2-6.4 24.5 24.5 0 0 0 1-6 10 10 0 0 0 2-4c.7-2.8.6-5.7 1.1-8.6a346.7 346.7 0 0 1-34.9-5.4 2.3 2.3 0 0 0 0 1.1l.4 3.2a29.5 29.5 0 0 0 3 10.2 2.5 2.5 0 0 0 .5 1zm53.8-216.6l-3 3.1a6.3 6.3 0 0 0-2-.2 2.8 2.8 0 0 0-2.9 2 4 4 0 0 0 1 4 16.1 16.1 0 0 0 2.2 2 4 4 0 0 1-.2.4 10.8 10.8 0 0 1-7.3 4.5 5.5 5.5 0 0 1-3.6-.3c.6-1 1.3-1.7 2-2.6a9.8 9.8 0 0 0 1.6-3.5 1.7 1.7 0 0 0 0-1 3 3 0 0 0-2.5-1.9 4.5 4.5 0 0 0-1.8.4l-2.3.9a2.7 2.7 0 0 1-.4-1 34 34 0 0 1-1.1-7.1 60 60 0 0 1 0-6.8 1 1 0 0 1 .4 0 3.8 3.8 0 0 0 3.3-.2l2.4-1a5.2 5.2 0 0 1 1.6 0l.2-.3a12 12 0 0 0 1.2-12c-1.2-3.2-3.8-4.6-7.6-4.2a1.4 1.4 0 0 0-1 .3 1 1 0 0 0-.2 0 1.7 1.7 0 0 1-2 0 1.9 1.9 0 0 1-.8-1.8l.3-4.5a71.2 71.2 0 0 0-16.8 1.4 1.2 1.2 0 0 0 .3.8 27.5 27.5 0 0 1 1.4 3.2 27.2 27.2 0 0 1 1.2 3.8 1.8 1.8 0 0 1-1.4 2.4c-.2 0-.4 0-.5.3a68.9 68.9 0 0 1 3 13.5l1.3 9.6a16.6 16.6 0 0 1 0 5.7h-.2l-.3-1.4a2.4 2.4 0 0 0-2-1.8 3.2 3.2 0 0 0-3.1.9l-1.6 1.6-.9-.5a7.5 7.5 0 0 0-2.2-.8 3.3 3.3 0 0 0-3.5 1.7 2.8 2.8 0 0 0 .2 3.4l.6.8c1 1.3 1.9 2.5 2.7 3.8a14.5 14.5 0 0 1-7.2.8c-3.1-.5-5.7-1.8-7.4-4.7.4-.4.8-.7 1.1-1.2a2.5 2.5 0 0 0-.6-4 10.5 10.5 0 0 0-2.6-1.3 17.1 17.1 0 0 0-1.3-3.6 12.9 12.9 0 0 1-1.1-6.3 9.1 9.1 0 0 0 5.9-5 17.4 17.4 0 0 0 1.6-5.4 6.7 6.7 0 0 0-6.9-7.5 7.8 7.8 0 0 0-5.4 2.7 11.8 11.8 0 0 0-3.1 6.6 17.6 17.6 0 0 1-6.7-.7 3.7 3.7 0 0 1 0-.5 25.7 25.7 0 0 1 3.7-8.8 34.4 34.4 0 0 1 3.3-4.1c.2-.2.5-.4.6-.7l-.1-.1-.7-.2a51.5 51.5 0 0 0-9.8-.6l-10.6.2h-3.4l-.2.4a50.6 50.6 0 0 0-3.8 15 61.5 61.5 0 0 0 1 18 123 123 0 0 0 5.2 18 20 20 0 0 0 8.3 10.7l4.9 2.9a21.4 21.4 0 0 0 2.8 1.4 11.3 11.3 0 0 0 5.2.9l9-1a146.7 146.7 0 0 1 16.8-1h8.8a6.4 6.4 0 0 0 3 1 8.1 8.1 0 0 1 2 .5 2.7 2.7 0 0 1 1.4 1.3c-1.9 1.4-2.7 1.6-4.9 1.2a67.2 67.2 0 0 0-18-.5c-4.3.4-8.4 1-12.6 1.6a32.5 32.5 0 0 1-8 0 24.2 24.2 0 0 1-13-5.5 2.7 2.7 0 0 0-.9-.6c-.7-.2-1.1.1-1.2.9a2.1 2.1 0 0 0 .2 1c2.2 5.5 4.5 11 7.2 16.3a79.7 79.7 0 0 0 12 18l5.3 5a11 11 0 0 1 3.5 5.2 11.2 11.2 0 0 1 .3 2.3.9.9 0 0 0 .2 0l.8-.2a17.4 17.4 0 0 1 6-1 8.1 8.1 0 0 1 4.9 2l6.5 5.6a3.7 3.7 0 0 1 1 1.2 3 3 0 0 0 2.1 1.5l1 .2c2.4.5 4.8.7 7.1 1.2a26.2 26.2 0 0 0 3 .4 44 44 0 0 0 11.2-1 74 74 0 0 0 17-5.1 135 135 0 0 0 25.8-14.7 61.9 61.9 0 0 0 8.5-7.4 44.7 44.7 0 0 0 12.2-23.6 19 19 0 0 0-.6-9.6 18 18 0 0 0-11-11.2l-2.9-1a23 23 0 0 1-4-1.9 1.4 1.4 0 0 1-.9-1.2c-.5-4.2-.7-8.4-.8-12.6-.3-6.9-.4-13.8-1.2-20.6l-.8-5.8c-1 .3-1.2.3-2-.1l-1-.6a3.4 3.4 0 0 0-1.2-.5c-1-.2-1.6.3-1.5 1.3l.4 4.7c.4 3.5.8 7 .9 10.4a102 102 0 0 1-1 16.5 75.8 75.8 0 0 1-4.3 17.1 7.8 7.8 0 0 1-5 4.9 44.8 44.8 0 0 1-9.7 2l-4 .5a1.6 1.6 0 0 0 0 .8 17.3 17.3 0 0 1 .5 4 6 6 0 0 1-2.7 4.6l-.2-2.2a19 19 0 0 0-1-4.9 6.7 6.7 0 0 0-3.6-3.9 2.2 2.2 0 0 0-1.8 0 10.3 10.3 0 0 0-2 1.1 10 10 0 0 1-1.7 1.1 3.3 3.3 0 0 1-3.3-.4.9.9 0 0 1 0-.2l.2-.4a10.8 10.8 0 0 1 8.6-4.7 10.6 10.6 0 0 1 3.7 1.8 14.7 14.7 0 0 0 2.6 1.5 15.2 15.2 0 0 1 6.3-2.7l2.5-.5a17.7 17.7 0 0 0 5.3-2 2.3 2.3 0 0 0 1-1.1 84.3 84.3 0 0 0 4.3-15.2 82.7 82.7 0 0 0 .9-23.3 100.2 100.2 0 0 0-2.9-15.7c-.5-2-1-4-1.7-5.9h-10a1.4 1.4 0 0 0 .5.7 27 27 0 0 1 4.4 7 17.9 17.9 0 0 1 1.2 3.8 9 9 0 0 0-3.2.5c-2.3.8-3.4 2.6-4 5a1.2 1.2 0 0 0 0 .7 18.6 18.6 0 0 1 .6 8.5l-.5 4.4zM123.7 248a11.4 11.4 0 0 0-2.7.5 47.7 47.7 0 0 1-6.8 1c-2 .2-4 .1-6 0a4.2 4.2 0 0 1-2.8-1 12.4 12.4 0 0 1-1.9-2.1l-1.6-2.4c-.6-.8-1-.8-1.7-.2a12.2 12.2 0 0 0-1 1 2.1 2.1 0 0 1-1.2.6 1 1 0 0 1-1-.4 6.8 6.8 0 0 1-1.3-4 9.4 9.4 0 0 1 .6-2.9c.7-2 1.8-4 2.7-6a1 1 0 0 1 .2-.2.6.6 0 0 1 .5.2 7 7 0 0 1 .6.5 14.7 14.7 0 0 1 3.4 5.3l1.8 3.9a9.2 9.2 0 0 0 2.9 3.3 2.2 2.2 0 0 0 1.4.4c2.5 0 5-.2 7.4-.5a36.3 36.3 0 0 0 10.1-2.6 16.1 16.1 0 0 0 10-11.4 1 1 0 0 0-.4-1.1l-6.5-5.5a52.3 52.3 0 0 1-7.7-8.8c-4-5.6-6.7-11.8-9.3-18a240 240 0 0 1-13.6-45.7q-1-5-1.7-10.1a3.4 3.4 0 0 0-.4-2c-4.2 2.9-8.8 3.2-13.5 2a.8.8 0 0 1 .1-.8 3.5 3.5 0 0 1 3-1.8 18.5 18.5 0 0 0 3 0 16.5 16.5 0 0 0 4.2-1.8 5.2 5.2 0 0 0 2.8-3.4c0-.2.2-.4 0-.6a39 39 0 0 1-8.4 1 41 41 0 0 1-8.6-.7c-3-.6-7.4-2.1-8-2.9l2.3-.2 7.6.1a45.6 45.6 0 0 0 8.8-.1 17.5 17.5 0 0 0 4-1c.4-.1 1-.2 1.3-.7a3.5 3.5 0 0 0 .1-3 .8.8 0 0 0-.8-.5l-1.7.2a54.3 54.3 0 0 1-9.2-.4 71 71 0 0 1-9-1.7 44.2 44.2 0 0 1-10-3.6 11.3 11.3 0 0 1-3-2.1 1.4 1.4 0 0 1-.4-1 5.7 5.7 0 0 1 2.5-.1 16.1 16.1 0 0 1 3.6 1 29 29 0 0 0 6.6 1.7c2.6.4 5.3 1 7.9 1.6a36 36 0 0 0 10 1 7 7 0 0 0 2.4-.5 9 9 0 0 0-1.4-.3c-2-.2-3.9-.3-5.8-.6a12.1 12.1 0 0 1-5.8-2.3 4.2 4.2 0 0 1-1.6-1.6 2.8 2.8 0 0 1 1.4 0l4 .6a33.3 33.3 0 0 0 8.6.8l5-.2 8.2-.5 6.5-.1c2.4-.2 4.8-.1 7.3-.2l8.3-.4 6.7-.4 7.2-.5c1 0 1.9 0 2.8-.2l6.4-.5 4.9-.3a16 16 0 0 0 2.9-.2 70.3 70.3 0 0 1 11-1.5c1 0 2 0 3-.2l5.8-.5a12.2 12.2 0 0 0 4.3-1 4.6 4.6 0 0 0 2.8-5l-.2-3.5a210 210 0 0 1-.4-15.3 28.9 28.9 0 0 1 .3-3.7.7.7 0 0 1 .8-.7 6.8 6.8 0 0 1 3 .6 2 2 0 0 1 1.5 1.6 9.6 9.6 0 0 0 .4 1.4l3.2 9.5c1.2 4 1.9 8 2.9 12l.6 2.9 3.3.1a26.4 26.4 0 0 0 10-2.4 4.7 4.7 0 0 1 .7-.2 22.5 22.5 0 0 0 3.7-.8 23 23 0 0 0 7.4-4.2 1 1 0 0 1 .7-.3h2.7a2.3 2.3 0 0 1-.5 1.1 13.5 13.5 0 0 1-5.1 4.8 36.5 36.5 0 0 1-5.8 2.3c-.3.1-.6.1-.7.4.1.3.4.2.6.2h1.3l4.5.6 6.4.9 7 1 5 .7a10.4 10.4 0 0 0 2.7.2 1.5 1.5 0 0 0 0-.9c-.6-3.5-1.1-7-1.5-10.7a68 68 0 0 1-.6-8.3v-3a31.6 31.6 0 0 0 0-3.7 36.3 36.3 0 0 0-1.9-7.8l-3.7-10.4-2.9-7.5c-1.4-3.5-3.2-6.9-4.9-10.2a65.9 65.9 0 0 0-6.8-11 37 37 0 0 0-5-5.2 82.5 82.5 0 0 0-9-6l-4.4-2.5a64 64 0 0 0-17.6-6.9 44.8 44.8 0 0 0-10-1.2c-7 0-14-.2-20.8.4l-4.5.5c-2 .2-4 .7-6 1-4.7 1-9.4 2.1-14 3.6a85 85 0 0 0-16.8 7l-3.8 2a124 124 0 0 0-12.4 8.7A156.8 156.8 0 0 0 85.1 54l-7 7.1a88.2 88.2 0 0 0-6.2 7.2A38.8 38.8 0 0 0 66.1 79a32.9 32.9 0 0 0-1.7 9.6c0 .5 0 1-.5 1.2a3 3 0 0 1-3.5.3 10 10 0 0 0-7.8-1 60.3 60.3 0 0 0-10 3.8 62.3 62.3 0 0 0-10.2 6 59.6 59.6 0 0 0-7.5 6.4 55.7 55.7 0 0 0-4 4.4 61.6 61.6 0 0 0-9 15.5 112.8 112.8 0 0 0-5.6 18.4 117.8 117.8 0 0 0-1.7 11.8c-.3 2.6-.4 5.1-.5 7.7v6.6a177.4 177.4 0 0 0 3.7 29c1.5 7.2 3.3 14.3 5.4 21.4 1.3 4.2 2.5 8.4 3.4 12.7a48 48 0 0 1 1 9.5l-.1 3a32.6 32.6 0 0 1-1.5 7.6l-.8 2.3a8.2 8.2 0 0 0 1.8 1.8 28 28 0 0 0 6.1 4.4 64.9 64.9 0 0 0 12.1 4.3c3 .9 6.2 1.7 9.1 2.9l2.3 1a2.9 2.9 0 0 0 .9-2.1 12 12 0 0 1 0-1.8 35.8 35.8 0 0 0 .7-6.2c0-2.6.2-5.2.4-7.8a17.8 17.8 0 0 1 .8-3.7 3 3 0 0 1 2.4-2.2 1 1 0 0 1 1 .3 5.3 5.3 0 0 1 1.4 2.1c2.6 7.2 5.5 14.3 8.3 21.4a5.3 5.3 0 0 0 4.4 3.4l2.2.3a63.6 63.6 0 0 0 6.9.4l16.7.1a17.6 17.6 0 0 1 5.4.8 1.4 1.4 0 0 0 1-.1c3.9-1.8 7.6-3.6 11.3-5.6q2.6-1.4 5-3a54.9 54.9 0 0 0 6-4.7 18.2 18.2 0 0 0 2.3-2.6l-1-1.5a7 7 0 0 1-1-4.5 8.5 8.5 0 0 1 1.6-3.9c.2-.2.4-.3.4-.6v-.1zm12.2 61.5c2.1 1 4 2.5 6 3.4a11 11 0 0 0 3.8 1 13.7 13.7 0 0 1 2.8.6 26.6 26.6 0 0 1 5.4 2.3 49 49 0 0 0 18.4 5.9 81.4 81.4 0 0 0 16.6.3 63.8 63.8 0 0 0 16-3.5 83 83 0 0 0 10.6-5 6 6 0 0 0 2.5-2 2 2 0 0 0 .2-1.8l-6.8-22.3a38.2 38.2 0 0 1-1.2-4c-.5-3-1-5.8-1.7-8.7a124.3 124.3 0 0 0-11.3-29.5c-.2-.3-.3-.6-.6-.8a59.3 59.3 0 0 1-30.4.7l-.8 4.7a136.6 136.6 0 0 1-3 14.1 35.8 35.8 0 0 1-6.7 13.4 4.2 4.2 0 0 0-.6 1 126.2 126.2 0 0 1-8.3 14.8c-2.1 3.3-4.4 6.5-6.7 9.7zm-23.6 11.2a2.8 2.8 0 0 1 2.8-.1 10.1 10.1 0 0 0 2.1.9 2.5 2.5 0 0 0 2.3-.6l2.1-1.9a6.4 6.4 0 0 0 2-2.3 8.1 8.1 0 0 1 2-2.9 12.3 12.3 0 0 0 .9-.9c2.8-3.4 5.7-6.7 8.4-10.2 3-3.6 6-7.2 8.6-11.2a141.3 141.3 0 0 0 8.4-14c0-.2.3-.4.2-.7a32.2 32.2 0 0 1-7.6-2.9c-2.3-1.2-4.7-2.4-7.1-3.4a25.9 25.9 0 0 1-10.2-7.5c-.2-.2-.3-.4-.6-.5l-.7.5a74.6 74.6 0 0 1-16.7 11.3c-2 1-4 2-5.1 4.1a17.1 17.1 0 0 0-7.2 1.6c-1.7.7-3.4 1.6-5.2 2.2a54.1 54.1 0 0 0-5.2 2.5 7.1 7.1 0 0 0-1.6 1.2 26.1 26.1 0 0 1-4.5 3.4 5 5 0 0 0-1 .8l-4.4 4.3-2.8 2.8a62.4 62.4 0 0 0-11.7 19.1 14.3 14.3 0 0 0 1 12.8 10.4 10.4 0 0 0 4.8 4.5 4.1 4.1 0 0 0 1.5.5 21.8 21.8 0 0 1 4-16.5l3 2.3-.6.9a17.8 17.8 0 0 0-2.4 13.8 1.2 1.2 0 0 0 1 1c2.7.8 5.5 1.4 8.3 1.9h.6a22 22 0 0 1 3.9-17.2l3 2.3a18 18 0 0 0-2.8 15.5c2.4.5 9.6.9 10.6.6a22 22 0 0 1 3.8-17.5l3 2.2a18.1 18.1 0 0 0-2.8 15.4c4.5-.3 8.8-1.1 12.6-3.6a33.4 33.4 0 0 1-.3-7 24.6 24.6 0 0 0-.4-7.5zM276.7 333l3.1-1.4a1 1 0 0 0 .7-1l.7-6a47.2 47.2 0 0 0 .5-9.3 25.1 25.1 0 0 0-8.7-17.8 67.7 67.7 0 0 1-5.2-5.4c-.9-1-1.6-2-2.6-3a44.6 44.6 0 0 0-8.6-6.8c-3.2-2-6.5-3.5-9.8-5-4-2-8.1-4-12.3-5.5a37.2 37.2 0 0 1-5.5-2.6c-1.5-.8-2.9-1.7-4.4-2.4a21.9 21.9 0 0 0-4.3-1.6 1 1 0 0 0-1.3.4 10.6 10.6 0 0 1-2.6 2.2 37.2 37.2 0 0 1-4.3 2.2c-.2 0-.5.1-.7.4a2.5 2.5 0 0 0 0 .3 62.4 62.4 0 0 1 2.3 11.5 28.5 28.5 0 0 0 3.3 11.3l5.4 10.5a29.2 29.2 0 0 0 3.1 4.9c3.9 4.9 7.6 9.9 11.1 15a26.3 26.3 0 0 1 3.3 6 2 2 0 0 0 .4 1 14.9 14.9 0 0 0 1.2-3.7 18 18 0 0 1 1.2-4 4.3 4.3 0 0 1 1.2-1.7 6 6 0 0 1 .7 1.8 18 18 0 0 1 0 6.7 38 38 0 0 0-.4 5.9 10.3 10.3 0 0 0 1.4 5.1c2.6-.2 5.1-.5 7.7-1a20.3 20.3 0 0 0-4.9-14.3 28.8 28.8 0 0 1 2.9-2.5 23.5 23.5 0 0 1 3 4.5 23.8 23.8 0 0 1 2.8 11.6c2.1-.4 4.1-1 6.2-1.5a21.5 21.5 0 0 0-4.6-15.8l2.9-2.4a25.4 25.4 0 0 1 5.6 17c2-.6 3.7-1.2 5.5-2a22.3 22.3 0 0 0-.8-8.3 21.5 21.5 0 0 0-3.8-7.4l3-2.4a24.7 24.7 0 0 1 3.3 5.4 27 27 0 0 1 2.3 11.1zM222.4 314l-.3.3a26.3 26.3 0 0 1-8.5 6.3 104.3 104.3 0 0 1-12.5 4.6 54 54 0 0 1-16.1 2.5 116 116 0 0 1-14.7-.7 50.5 50.5 0 0 1-12.4-2.5 39.9 39.9 0 0 1-5.2-2.1 71.3 71.3 0 0 0-8.2-3.7c-4-1.5-8-3.2-11.3-6h-.1a.8.8 0 0 0-.2.2 49.5 49.5 0 0 1-4.7 5.8 25.3 25.3 0 0 0-3.5 4.8 12.8 12.8 0 0 0-1.5 7.7 2.7 2.7 0 0 0 .5 1.3 22.2 22.2 0 0 0 6.8 6.2 39.2 39.2 0 0 0 10.5 4.2 203.8 203.8 0 0 0 25.6 5 159.5 159.5 0 0 0 29.3 1.2 54 54 0 0 0 17-3.6 79 79 0 0 0 17.7-10l.7-.6a2.6 2.6 0 0 0 1-1.6 3 3 0 0 1 2.2-2.5c.3-.1.7 0 1-.4-4-5.8-7.9-11.6-13.1-16.4zm31.8-126.7a13.2 13.2 0 0 0-.4 2.1 48 48 0 0 1-1.9 9 56.2 56.2 0 0 1-12.4 21 37.8 37.8 0 0 1-3.7 3.3c-3.1 2.5-6.3 5-9.7 7.3a142.4 142.4 0 0 1-14 8.3l-4.4 2a2.5 2.5 0 0 0-1.5 1.6 35.3 35.3 0 0 0 5.9 3.4 69.4 69.4 0 0 1 6.4 3.4 16.3 16.3 0 0 1 5.7 5.6 2 2 0 0 1 .3 1.5l-.6 2.3a5.9 5.9 0 0 0 0 2.8 16.8 16.8 0 0 1 5.7-1 9.5 9.5 0 0 0 3.7-1.1 2.3 2.3 0 0 0 1.3-1.8 25.6 25.6 0 0 0 .2-2.8c0-2.1-.3-4.3 0-6.4a9 9 0 0 1 2.7-5.9 1.4 1.4 0 0 1 .9-.4 14.4 14.4 0 0 1 2.9 2.8 38.7 38.7 0 0 1 3 4.7 33.1 33.1 0 0 0 2.6 3.9c.8 1 1 1 2 .4l2.7-1.2a146 146 0 0 0 13-6.8 85.9 85.9 0 0 0 11-7.6 78.1 78.1 0 0 0 6.6-6.1.6.6 0 0 0 .2-.5l-.2-.4-3.4-4.3-5.7-7q-4.1-5.1-8-10.6a83.5 83.5 0 0 1-10.1-19.3zm-128.5 65.3a9.6 9.6 0 0 0 1.2 2.4 25.3 25.3 0 0 0 4.5 5.2 52.7 52.7 0 0 0 18.2 11 24.2 24.2 0 0 0 5.1 1.2 1 1 0 0 0 1.3-.5 28.4 28.4 0 0 0 3.9-11.3 34.2 34.2 0 0 0-.3-9.3 35.5 35.5 0 0 0-1.7-7 11 11 0 0 0-7.6-7.3 11.2 11.2 0 0 0-8 1 33.7 33.7 0 0 0-8.7 6.2c-2.4 2.3-4.6 4.8-6.8 7.2a6.2 6.2 0 0 0-1 1.2zm123-78.2a9.8 9.8 0 0 0-.7-3l-2-5.2a259.3 259.3 0 0 1-9.7-33.5c-.6-3-1.2-6-1.6-9a9.7 9.7 0 0 0-1.5-4.6 1 1 0 0 0-1.2-.6l-3.5.6c-.5 0-1 0-1.4.4a11.9 11.9 0 0 1 2.4 4.2 4.7 4.7 0 0 0 1.4 0 1.8 1.8 0 0 1 1.5 1.3c.2.7 0 1-.7 1.5l-.8.5a1.6 1.6 0 0 0-.8 2 2.7 2.7 0 0 1 0 .6l.8 5.6.6 5.1.5 4c.2 2 .4 3.9.4 5.8a61.3 61.3 0 0 1-.1 8.3c-.2 2-.4 3.8-.8 5.8a3 3 0 0 0-.1 1.4l2.7.8a28.7 28.7 0 0 1 10.3 5l2.3 2.3a2 2 0 0 0 2 .7zM200 245.5c1.6 4 9.2 20.4 9.8 21.1 2.5-2.2 5-4.3 7.4-6.7a14 14 0 0 0 1.3-1.6 6.8 6.8 0 0 0 1.1-3.4c-4-2.4-7.6-4.9-11.6-7a47 47 0 0 0-6.4-3 1.7 1.7 0 0 0-1-.3 2.4 2.4 0 0 0-.6.9zm-5.2-133.1a16.8 16.8 0 0 0-2.2-10.5 5.5 5.5 0 0 0-.8 3.7 12.8 12.8 0 0 1-.1 3.1l-.5 3.7zm29.1 11.8l-.1-3.9a.8.8 0 0 0-.3-.6 5.2 5.2 0 0 0-5.2-.4l1.1 4zm25 50.5c0 .3 0 .5.4.5a.3.3 0 0 0 0-.3c-.2-.1-.3-.3-.5-.2z" class="cls-2"/><path d="M183 385.5a.3.3 0 0 0 0-.2H193.8v.2zM.2 162.2c0 .2.2 0 .3 0a16.4 16.4 0 0 1-.3 4.1zM.5 174.8c-.1 0-.2-.2-.3 0V171a13.5 13.5 0 0 1 .3 3.7z" class="cls-3"/><path d="M193.7 385.5v-.2a19.6 19.6 0 0 1 2.3 0 .4.4 0 0 0 0 .2z" class="cls-4"/><path d="M174 15.6a6.6 6.6 0 0 1-1.9-.2h2v.2zM166.2 15.4a3.7 3.7 0 0 1-1.8.2 1 1 0 0 0 0-.2z" class="cls-3"/><path d="M164.4 15.4a1 1 0 0 1 0 .2 11 11 0 0 1-1.7 0 .6.6 0 0 0 0-.2zM174 15.6v-.2h1.4a.4.4 0 0 0 0 .2 5.5 5.5 0 0 1-1.3 0z" class="cls-4"/><path d="M123.7 248c0 .2-.2.4-.4.6a8.5 8.5 0 0 0-1.6 3.9 7 7 0 0 0 1 4.5l1 1.5a18.2 18.2 0 0 1-2.3 2.5 54.9 54.9 0 0 1-6 4.7q-2.4 1.7-5 3c-3.6 2-7.4 3.9-11.2 5.6a1.4 1.4 0 0 1-1.1.1 17.6 17.6 0 0 0-5.4-.7l-16.7-.1a63.6 63.6 0 0 1-6.9-.5L67 273a5.3 5.3 0 0 1-4.3-3.5c-2.9-7-5.7-14.1-8.4-21.3a5.3 5.3 0 0 0-1.5-2.1 1 1 0 0 0-1-.3 3 3 0 0 0-2.4 2.2 17.8 17.8 0 0 0-.7 3.8c-.3 2.5-.4 5.1-.5 7.7a35.8 35.8 0 0 1-.6 6.2 12 12 0 0 0 0 1.8 2.9 2.9 0 0 1-1 2l-2.2-.9c-3-1.1-6-2-9.1-2.9a64.9 64.9 0 0 1-12.1-4.3 28 28 0 0 1-6.2-4.3 8.2 8.2 0 0 1-1.7-1.9l.8-2.3a32.6 32.6 0 0 0 1.5-7.6l.1-3a48 48 0 0 0-1-9.5c-.9-4.3-2.1-8.5-3.4-12.7a217.8 217.8 0 0 1-9-50.3c-.1-2.2-.2-4.5-.1-6.7l.4-7.7a117.8 117.8 0 0 1 1.8-11.8 94 94 0 0 1 5.5-18.3 61.6 61.6 0 0 1 9-15.6 55.7 55.7 0 0 1 4-4.4 59.6 59.6 0 0 1 7.6-6.4 62.3 62.3 0 0 1 10.1-6A60.3 60.3 0 0 1 52.6 89a10 10 0 0 1 7.8 1 3 3 0 0 0 3.5-.2c.5-.3.4-.8.4-1.2a32.9 32.9 0 0 1 1.8-9.7 38.8 38.8 0 0 1 5.8-10.5 88.2 88.2 0 0 1 6.2-7.2l7-7.2a156.8 156.8 0 0 1 12-10.6 124 124 0 0 1 12.4-8.6l3.8-2.1a85 85 0 0 1 16.9-7c4.6-1.4 9.2-2.5 14-3.5a243.3 243.3 0 0 1 10.5-1.6c6.8-.6 13.8-.3 20.7-.3a44.8 44.8 0 0 1 10 1.1 64 64 0 0 1 17.6 6.9l4.5 2.5a82.5 82.5 0 0 1 8.9 6 37 37 0 0 1 5 5.3 65.9 65.9 0 0 1 6.9 10.9c1.7 3.4 3.4 6.7 4.9 10.2l2.9 7.5 3.7 10.4a36.3 36.3 0 0 1 1.8 7.8 31.6 31.6 0 0 1 .1 3.7v3a68 68 0 0 0 .5 8.4c.4 3.5 1 7.1 1.6 10.7a1.5 1.5 0 0 1 0 .8 10.4 10.4 0 0 1-2.7-.2l-5.1-.7-7-1-6.4-1-4.4-.4-1.4-.1c-.2 0-.4 0-.6-.2.2-.3.5-.3.7-.4a36.5 36.5 0 0 0 5.8-2.3 13.5 13.5 0 0 0 5.2-4.7 2.3 2.3 0 0 0 .5-1.2h-2.8a1 1 0 0 0-.7.3 23 23 0 0 1-7.3 4.2 22.5 22.5 0 0 1-3.8.8 4.7 4.7 0 0 0-.7.2 26.4 26.4 0 0 1-10 2.4H200l-.7-3c-1-4-1.6-8-2.9-12l-3.1-9.4a9.6 9.6 0 0 1-.5-1.5 2 2 0 0 0-1.4-1.6 6.8 6.8 0 0 0-3-.6.7.7 0 0 0-.8.7 28.9 28.9 0 0 0-.4 3.7V95a210 210 0 0 0 .7 11.5 4.6 4.6 0 0 1-2.9 4.8 12.2 12.2 0 0 1-4.2 1.1l-5.8.6c-1 0-2 0-3 .2a70.3 70.3 0 0 0-11.1 1.5 16 16 0 0 1-2.9.2l-4.8.2-6.4.5-2.8.2-7.3.5-6.7.4-8.3.4c-2.4.1-4.9 0-7.3.2l-6.4.1-8.2.5-5 .2a33.3 33.3 0 0 1-8.7-.8l-4-.6a2.8 2.8 0 0 0-1.3 0 4.2 4.2 0 0 0 1.5 1.6 12.1 12.1 0 0 0 5.8 2.3l5.8.6a9 9 0 0 1 1.4.3 7 7 0 0 1-2.4.5 36 36 0 0 1-10-1c-2.6-.6-5.2-1.2-7.9-1.6a29 29 0 0 1-6.5-1.7 16.1 16.1 0 0 0-3.6-1 5.7 5.7 0 0 0-2.6 0 1.4 1.4 0 0 0 .5 1 11.3 11.3 0 0 0 3 2.2 44.2 44.2 0 0 0 10 3.5 71 71 0 0 0 9 1.8 54.3 54.3 0 0 0 9.1.4l1.7-.2a.8.8 0 0 1 .9.5 3.5 3.5 0 0 1-.2 3c-.2.5-.8.6-1.3.8a17.5 17.5 0 0 1-4 .9 45.6 45.6 0 0 1-8.8.2c-2.5-.2-5-.2-7.5-.2-.8 0-1.5.2-2.3.3.5.7 5 2.2 7.9 2.8a41 41 0 0 0 8.6.8 39 39 0 0 0 8.4-1.1c.2.2 0 .4 0 .6a5.2 5.2 0 0 1-2.8 3.5 16.5 16.5 0 0 1-4.2 1.7 18.5 18.5 0 0 1-3 0 3.5 3.5 0 0 0-3 1.8.8.8 0 0 0 0 .8c4.6 1.2 9.2 1 13.4-2a3.4 3.4 0 0 1 .4 2l1.7 10a226.2 226.2 0 0 0 13.6 45.8 90.3 90.3 0 0 0 9.3 18 52.3 52.3 0 0 0 7.8 8.9l6.4 5.4a1 1 0 0 1 .4 1.1 16.1 16.1 0 0 1-10 11.5 36.3 36.3 0 0 1-10 2.5l-7.5.6a2.2 2.2 0 0 1-1.4-.5 9.2 9.2 0 0 1-2.9-3.3c-.7-1.3-1.2-2.6-1.8-4a14.7 14.7 0 0 0-3.4-5.2 7 7 0 0 0-.6-.5.6.6 0 0 0-.5-.2 1 1 0 0 0-.2.3c-.9 2-2 3.9-2.7 6a9.4 9.4 0 0 0-.6 2.7 6.8 6.8 0 0 0 1.2 4.1 1 1 0 0 0 1.1.4 2.1 2.1 0 0 0 1.2-.6 12.2 12.2 0 0 1 1-1c.7-.5 1.2-.5 1.7.2l1.7 2.4a12.4 12.4 0 0 0 1.9 2.2 4.2 4.2 0 0 0 2.8 1h6a47.7 47.7 0 0 0 6.7-1 11.4 11.4 0 0 1 2.7-.6z" class="cls-5"/><path d="M168.1 157.2a16.6 16.6 0 0 0 0-5.7l-1.3-9.6a68.9 68.9 0 0 0-3-13.5c0-.3.3-.3.5-.3a1.8 1.8 0 0 0 1.3-2.5 27.2 27.2 0 0 0-1-3.7 27.5 27.5 0 0 0-1.6-3.2 1.2 1.2 0 0 1-.2-.8 71.2 71.2 0 0 1 16.7-1.4c0 1.5 0 3-.2 4.4a1.9 1.9 0 0 0 .7 2 1.7 1.7 0 0 0 2-.2 1 1 0 0 1 .3 0 6.3 6.3 0 0 1 0 1.2 44.5 44.5 0 0 0-.8 7.2c0 1.1.3 2.2.2 3.3 0 .7.3 1.3.3 2 0 .3.1.4.3.5a3.1 3.1 0 0 0 2.9.4c.9-.3 1.7-.8 2.6-1a2.8 2.8 0 0 1 1.8 0 5.2 5.2 0 0 1-.6 1.2c-.3.5-.8.8-1.1 1.4l-2.4 1.1a3.8 3.8 0 0 1-3.3.2 1 1 0 0 0-.4 0 60 60 0 0 0 0 6.7 34 34 0 0 0 1 7.1 2.7 2.7 0 0 0 .5 1 18.2 18.2 0 0 1 0 3 8.2 8.2 0 0 0 .7 5.2 5.3 5.3 0 0 0 .2 5 14.2 14.2 0 0 0 1 1.6l1.1 1.5.2.2a4.1 4.1 0 0 0 0 1 7.1 7.1 0 0 0 3.2 4.7 2.8 2.8 0 0 1 1.4 2.5 10.8 10.8 0 0 0-8.5 4.6l-.3.4a.9.9 0 0 0 0 .3 3.3 3.3 0 0 0 3.3.4 10 10 0 0 0 1.8-1.1 10.3 10.3 0 0 1 2-1.1 2.2 2.2 0 0 1 1.8 0 6.7 6.7 0 0 1 3.6 3.9 19 19 0 0 1 1 4.9c0 .6 0 1.3.2 2.2a6 6 0 0 0 2.6-4.7 17.3 17.3 0 0 0-.4-4 1.6 1.6 0 0 1 0-.8l4-.4a44.8 44.8 0 0 0 9.6-2 7.8 7.8 0 0 0 5-4.9 75.8 75.8 0 0 0 4.4-17.1 102 102 0 0 0 1-16.5 119.6 119.6 0 0 0-1.4-15.1c0-1 .5-1.5 1.5-1.4a3.4 3.4 0 0 1 1.3.5l1 .6c.7.4.8.4 1.9.2l.8 5.7c.8 6.9 1 13.8 1.2 20.6.2 4.3.4 8.5.9 12.7a1.4 1.4 0 0 0 .8 1.2 23 23 0 0 0 4 1.8l3 1a18 18 0 0 1 11 11.2 19 19 0 0 1 .6 9.6 44.7 44.7 0 0 1-12.3 23.7 61.9 61.9 0 0 1-8.5 7.4 135 135 0 0 1-25.7 14.7 74 74 0 0 1-17 5.2 44 44 0 0 1-11.1.9 26.2 26.2 0 0 1-3-.4l-7.2-1.2c-.3 0-.7 0-1-.2a3 3 0 0 1-2-1.5 3.7 3.7 0 0 0-1-1.2l-6.7-5.6a8.1 8.1 0 0 0-4.9-1.9 17.4 17.4 0 0 0-6 1l-.7.1a.9.9 0 0 1-.2 0 11.2 11.2 0 0 0-.3-2.3 11 11 0 0 0-3.5-5.1 78.1 78.1 0 0 1-5.3-5.2 79.7 79.7 0 0 1-12-18c-2.8-5.2-5-10.7-7.2-16.3a2.1 2.1 0 0 1-.2-.9c0-.8.5-1 1.2-.9a2.7 2.7 0 0 1 .9.6 24.2 24.2 0 0 0 13 5.7 32.5 32.5 0 0 0 7.9 0c4.2-.5 8.4-1.2 12.6-1.6a67.2 67.2 0 0 1 18 .5c2.2.4 3 .2 5-1.2a2.7 2.7 0 0 0-1.4-1.2 8.1 8.1 0 0 0-2.2-.6 6.4 6.4 0 0 1-2.8-1 10 10 0 0 1 0-1.3 8.3 8.3 0 0 1 1.1-2.8 15 15 0 0 0 1.8-5.5 17 17 0 0 0 .1-5.8 3.6 3.6 0 0 1 .7-2.2 1.7 1.7 0 0 0 .3-1.3l-.8-7.2a14 14 0 0 0-.3-2.6zm-19 36.2a.5.5 0 0 0 0 .6 15.1 15.1 0 0 1 .2 5.2 49.3 49.3 0 0 0-.5 8.4c.2 3.6 0 7.1.5 10.7a25 25 0 0 0 2.3 8.3c.7 1.5 1.6 2.9 2.4 4.3a5.2 5.2 0 0 0 .8 1 63 63 0 0 0 6.7 6 7.6 7.6 0 0 0 3.1 1.7 10.4 10.4 0 0 0 6.2-.2 32.1 32.1 0 0 0 19.2-17.9l2.8-6.2a34.9 34.9 0 0 0 2.8-7.4 5.4 5.4 0 0 1 2.1-3.3 12.5 12.5 0 0 0 2.6-2.7 8.8 8.8 0 0 0 1.5-7 1.3 1.3 0 0 0-1.4-1.2 1.4 1.4 0 0 0-1.5 1.3 8.6 8.6 0 0 0 0 1.4 6.1 6.1 0 0 1-3.5 5.9 40.3 40.3 0 0 1-7 2.9 22.6 22.6 0 0 1-14.6-.2 30.4 30.4 0 0 1-8.4-4.7l-5.8-4.6a14.7 14.7 0 0 0-2.1-1.5 11 11 0 0 0-8.4-.8zm38.3 1.7a6 6 0 0 0-1.2-3.9c-1.2-1.7-2.9-2.9-4.2-4.4a2.9 2.9 0 0 0-1.5 3.6c0 .3.1.5.4.6a5 5 0 0 1 2.3 1.6 11.6 11.6 0 0 0 2.4 2 3.8 3.8 0 0 0 1.8.5z" class="cls-6"/><path d="M135.9 309.4l4.2-5.7c2.3-3.2 4.6-6.4 6.7-9.7a126.2 126.2 0 0 0 8.3-14.9 4.2 4.2 0 0 1 .6-1 35.8 35.8 0 0 0 6.6-13.3 136.6 136.6 0 0 0 3.1-14.1l.8-4.7a59.3 59.3 0 0 0 30.4-.7c.3.2.4.5.6.8a124.3 124.3 0 0 1 11.2 29.5l1.8 8.7a38.2 38.2 0 0 0 1.2 4l6.8 22.3a2 2 0 0 1-.2 1.7 6 6 0 0 1-2.5 2.1 83 83 0 0 1-10.6 5 63.8 63.8 0 0 1-16 3.5 81.4 81.4 0 0 1-16.7-.4 49 49 0 0 1-18.3-5.8 26.6 26.6 0 0 0-5.4-2.4 13.7 13.7 0 0 0-2.9-.5 11 11 0 0 1-3.7-1c-2-1-3.9-2.3-6-3.4z" class="cls-7"/><path d="M112.3 320.6a24.6 24.6 0 0 1 .5 7.5 33.4 33.4 0 0 0 .2 7c-3.8 2.5-8 3.3-12.6 3.6a18.1 18.1 0 0 1 2.9-15.3l-3-2.3a22 22 0 0 0-3.8 17.5c-1 .3-8.2 0-10.7-.5a18 18 0 0 1 2.8-15.6l-3-2.2a22 22 0 0 0-3.8 17c-.2.2-.4.1-.7.1-2.8-.5-5.5-1.1-8.3-1.8a1.2 1.2 0 0 1-1-1 17.8 17.8 0 0 1 2.4-13.9l.6-.9-3-2.3a21.8 21.8 0 0 0-4 16.5 4.1 4.1 0 0 1-1.5-.5 10.4 10.4 0 0 1-4.8-4.5 14.3 14.3 0 0 1-1-12.7A62.4 62.4 0 0 1 72.2 297c1-1 1.8-2 2.8-2.8l4.4-4.3a5 5 0 0 1 1-.8 26.1 26.1 0 0 0 4.5-3.5 7.1 7.1 0 0 1 1.6-1 54.1 54.1 0 0 1 5.3-2.6L97 280a17.1 17.1 0 0 1 7-1.6c1-2.1 3-3.1 5.2-4.1a74.6 74.6 0 0 0 16.7-11.3l.7-.6c.3.1.4.4.6.6a25.9 25.9 0 0 0 10.2 7.5c2.4 1 4.8 2.2 7.2 3.4a32.2 32.2 0 0 0 7.5 2.8c.1.4-.1.6-.2.8a141.3 141.3 0 0 1-8.3 14c-2.7 4-5.7 7.5-8.7 11.2l-8.4 10.2a12.3 12.3 0 0 1-.9.9 8.1 8.1 0 0 0-2 2.8 6.4 6.4 0 0 1-2 2.4l-2.1 1.9a2.5 2.5 0 0 1-2.3.6 10.1 10.1 0 0 1-2-1 2.8 2.8 0 0 0-3 .2zM276.6 333.1a27 27 0 0 0-2.2-11 24.7 24.7 0 0 0-3.3-5.5l-3 2.4a21.5 21.5 0 0 1 3.8 7.4 22.3 22.3 0 0 1 .8 8.3c-1.8.8-3.6 1.4-5.5 2a25.4 25.4 0 0 0-5.6-17l-3 2.4a21.5 21.5 0 0 1 4.7 15.8c-2 .6-4.1 1.1-6.3 1.5a23.8 23.8 0 0 0-2.7-11.5 23.5 23.5 0 0 0-3-4.6 28.8 28.8 0 0 0-2.9 2.5 20.3 20.3 0 0 1 4.8 14.4l-7.6 1a10.3 10.3 0 0 1-1.4-5.2 38 38 0 0 1 .5-6 18 18 0 0 0-.1-6.6 6 6 0 0 0-.7-1.7 4.3 4.3 0 0 0-1.3 1.7 18 18 0 0 0-1.1 4 14.9 14.9 0 0 1-1.2 3.7 2 2 0 0 1-.4-1 26.3 26.3 0 0 0-3.3-6c-3.5-5.2-7.2-10.2-11-15a29.2 29.2 0 0 1-3.2-5l-5.5-10.5a28.5 28.5 0 0 1-3.2-11.2 62.4 62.4 0 0 0-2.3-11.6 2.5 2.5 0 0 1 0-.3c.2-.3.5-.3.7-.4a37.2 37.2 0 0 0 4.3-2.2 10.6 10.6 0 0 0 2.6-2.2 1 1 0 0 1 1.3-.3 21.9 21.9 0 0 1 4.3 1.5l4.4 2.5a37.2 37.2 0 0 0 5.5 2.5c4.2 1.6 8.2 3.6 12.3 5.5 3.3 1.6 6.6 3.1 9.8 5a44.6 44.6 0 0 1 8.6 6.8c1 1 1.7 2 2.6 3a67.7 67.7 0 0 0 5.2 5.4 25.1 25.1 0 0 1 8.7 17.8 47.2 47.2 0 0 1-.5 9.3l-.7 6a1 1 0 0 1-.7 1c-1 .5-2 1-3.2 1.4z" class="cls-6"/><path fill="#578ff8" d="M222.4 314c5.2 4.7 9 10.5 13 16.3-.3.3-.6.3-.9.4a3 3 0 0 0-2.3 2.5 2.6 2.6 0 0 1-1 1.7l-.6.5a79 79 0 0 1-17.7 10 54 54 0 0 1-17 3.6q-7.4.4-14.7.1c-5-.2-9.8-.6-14.7-1.3a203.8 203.8 0 0 1-25.5-5 39.2 39.2 0 0 1-10.5-4.2 22.2 22.2 0 0 1-6.8-6.3 2.7 2.7 0 0 1-.5-1.2 12.8 12.8 0 0 1 1.6-7.7 25.3 25.3 0 0 1 3.5-4.8 49.5 49.5 0 0 0 4.6-5.8.8.8 0 0 1 .2-.2h.1c3.4 2.8 7.3 4.5 11.3 6a71.3 71.3 0 0 1 8.3 3.7 39.9 39.9 0 0 0 5.1 2 50.5 50.5 0 0 0 12.5 2.6 116 116 0 0 0 14.6.7 54 54 0 0 0 16.1-2.5 104.3 104.3 0 0 0 12.5-4.6 26.3 26.3 0 0 0 8.5-6.4l.3-.2z"/><path d="M254.2 187.2l.8 2.2a83.5 83.5 0 0 0 10.2 19.4q3.8 5.4 8 10.6l5.6 7 3.4 4.2.2.4a.6.6 0 0 1-.2.5 78.1 78.1 0 0 1-6.6 6.1 85.9 85.9 0 0 1-11 7.6 146 146 0 0 1-13 6.8l-2.6 1.3c-1.2.5-1.3.5-2-.5a33.1 33.1 0 0 1-2.7-4 38.7 38.7 0 0 0-3-4.6 14.4 14.4 0 0 0-2.9-2.8 1.4 1.4 0 0 0-.9.5 9 9 0 0 0-2.7 5.8c-.2 2.2.1 4.3 0 6.4a25.6 25.6 0 0 1-.2 2.8 2.3 2.3 0 0 1-1.3 1.8 9.5 9.5 0 0 1-3.7 1 16.8 16.8 0 0 0-5.7 1.1 5.9 5.9 0 0 1 0-2.7l.6-2.4a2 2 0 0 0-.2-1.5 16.3 16.3 0 0 0-5.8-5.6 69.4 69.4 0 0 0-6.4-3.3 35.3 35.3 0 0 1-6-3.5 2.5 2.5 0 0 1 1.6-1.6l4.4-2a142.4 142.4 0 0 0 14-8.2c3.4-2.3 6.6-4.8 9.7-7.4a37.8 37.8 0 0 0 3.7-3.3 56.2 56.2 0 0 0 12.4-21 48 48 0 0 0 2-8.9 13.2 13.2 0 0 1 .3-2.2z" class="cls-5"/><path d="M168.3 170.4a17 17 0 0 1-.2 5.9 15 15 0 0 1-1.7 5.5 8.3 8.3 0 0 0-1.1 2.7 10 10 0 0 0 0 1.4h-9a146.7 146.7 0 0 0-16.7 1l-9 1a11.3 11.3 0 0 1-5.2-1 21.4 21.4 0 0 1-2.9-1.4l-4.8-2.9a20 20 0 0 1-8.3-10.6 123 123 0 0 1-5.2-18 61.5 61.5 0 0 1-1-18 50.6 50.6 0 0 1 3.7-15l.2-.4h3.5l10.5-.2a51.5 51.5 0 0 1 9.9.6l.6.1.2.1c-.1.4-.4.5-.6.8a34.4 34.4 0 0 0-3.3 4 25.7 25.7 0 0 0-3.8 8.9 3.7 3.7 0 0 0 0 .4l-.2.7-1.5 6.1a23.8 23.8 0 0 0-.8 5.7l.2 4.9a21.5 21.5 0 0 0 1 6.2 47.2 47.2 0 0 0 2.7 5.7 27.1 27.1 0 0 0 6.5 8.6 5.6 5.6 0 0 1 .8.8 9.2 9.2 0 0 0 2.4 2.2 32.3 32.3 0 0 0 6 3 20.8 20.8 0 0 0 14.4.5 26.4 26.4 0 0 0 9.2-5.7l3.5-3.6z" class="cls-9"/><path d="M168.3 170.4l-3.5 3.6a26.4 26.4 0 0 1-9.2 5.6 20.8 20.8 0 0 1-14.4-.4 32.3 32.3 0 0 1-6-3 9.2 9.2 0 0 1-2.4-2.2 5.6 5.6 0 0 0-.9-.8 27.1 27.1 0 0 1-6.5-8.6 47.2 47.2 0 0 1-2.6-5.8 21.5 21.5 0 0 1-1-6.2c0-1.6-.3-3.2-.2-4.9a23.8 23.8 0 0 1 .7-5.6l1.6-6.2.2-.6a17.6 17.6 0 0 0 6.7.8 16.5 16.5 0 0 1 .6 2.2 12.7 12.7 0 0 0 .9 3 12.8 12.8 0 0 0 2.1 2.3h.1a1.4 1.4 0 0 0 1 .6l3.2.4a12.9 12.9 0 0 0 1.2 6.3 17.1 17.1 0 0 1 1.2 3.6 4.9 4.9 0 0 0-2.6 1 4.1 4.1 0 0 1-1.5.7 1.3 1.3 0 0 0-.6.4 14.5 14.5 0 0 1-2.1 1.8 6.6 6.6 0 0 0-1.2 1 2.8 2.8 0 0 0 .2 4 1.4 1.4 0 0 1 .3.3 1.6 1.6 0 0 0 1.4.6 7.4 7.4 0 0 0 1.4-.1 14 14 0 0 0 4.8-2.2 7.4 7.4 0 0 1 2-1c1.7 2.9 4.3 4.2 7.5 4.7a14.5 14.5 0 0 0 7.2-.8 9.1 9.1 0 0 1 1.2 1.3 2.8 2.8 0 0 0 4.1.4l2-1.6a3 3 0 0 0 1.1-1.8 7.3 7.3 0 0 1 .4-1 12.6 12.6 0 0 0 1.2-5h.2a14 14 0 0 1 .4 2.5l.7 7.2a1.7 1.7 0 0 1-.2 1.3 3.6 3.6 0 0 0-.7 2.2z" class="cls-10"/><path d="M125.7 252.5a6.2 6.2 0 0 1 1-1.2c2.3-2.4 4.5-5 6.9-7.2a33.7 33.7 0 0 1 8.7-6.3 11.2 11.2 0 0 1 8-1 11 11 0 0 1 7.6 7.4 35.5 35.5 0 0 1 1.7 7 34.2 34.2 0 0 1 .2 9.3 28.4 28.4 0 0 1-3.8 11.3 1 1 0 0 1-1.3.5 24.2 24.2 0 0 1-5.1-1.2 52.7 52.7 0 0 1-18.2-11 25.3 25.3 0 0 1-4.5-5.2 9.6 9.6 0 0 1-1.2-2.4z" class="cls-7"/><path d="M191.2 179.7a2.8 2.8 0 0 0-1.4-2.5 7.1 7.1 0 0 1-3.2-4.7 4.1 4.1 0 0 1 0-1 4.4 4.4 0 0 1 1.7.5 15.8 15.8 0 0 0 18.4-5.9 21.2 21.2 0 0 0 3.9-11.1 37.3 37.3 0 0 1 .5-4 11.5 11.5 0 0 0 .2-4 15 15 0 0 1 0-2.8 57.9 57.9 0 0 0-.2-8.5 41.2 41.2 0 0 0-1.2-5.4 9.6 9.6 0 0 0-.7-2.3 17.9 17.9 0 0 0-1.2-3.7 27 27 0 0 0-4.4-7 1.4 1.4 0 0 1-.5-.7h10.1c.7 2 1.2 3.9 1.7 5.9a100.2 100.2 0 0 1 2.9 15.7 82.7 82.7 0 0 1-.9 23.2 84.3 84.3 0 0 1-4.3 15.2 2.3 2.3 0 0 1-1 1.2 17.7 17.7 0 0 1-5.3 2l-2.5.5a15.2 15.2 0 0 0-6.3 2.7 14.7 14.7 0 0 1-2.6-1.6 10.6 10.6 0 0 0-3.8-1.7z" class="cls-9"/><path d="M209.2 128a9.6 9.6 0 0 1 .7 2.3 41.2 41.2 0 0 1 1.3 5.4 57.9 57.9 0 0 1 0 8.4 15 15 0 0 0 .1 2.8 11.5 11.5 0 0 1-.2 4 37.3 37.3 0 0 0-.5 4 21.2 21.2 0 0 1-4 11.1 15.8 15.8 0 0 1-18.3 5.9 4.4 4.4 0 0 0-1.7-.5l-.2-.2-1.1-1.5a14.2 14.2 0 0 1-1-1.7 5.3 5.3 0 0 1-.3-4.8 1.5 1.5 0 0 0 .7-.3 1.9 1.9 0 0 1 1.6-.3 5.5 5.5 0 0 0 3.5.3 10.8 10.8 0 0 0 7.3-4.5 4 4 0 0 0 .3-.5l1.3.1a8.8 8.8 0 0 0 5.6-1.4 1.6 1.6 0 0 0 .6-.7c.5-1 1-2 1.4-3.2a7 7 0 0 0 .4-2.2 3.2 3.2 0 0 0-1.2-2.5 2.3 2.3 0 0 0-2.5-.9 3.7 3.7 0 0 1-1 0l.5-4.4a18.6 18.6 0 0 0-.5-8.5 1.2 1.2 0 0 1-.1-.8c.6-2.3 1.8-4.1 4-5a9 9 0 0 1 3.3-.4z" class="cls-10"/><path d="M148.3 363.8a2.5 2.5 0 0 1-.6-1 29.5 29.5 0 0 1-3-10.1c-.2-1-.3-2.2-.3-3.3a2.3 2.3 0 0 1 0-1 346.7 346.7 0 0 0 34.8 5.4c-.4 2.9-.4 5.8-1.2 8.6a10 10 0 0 1-1.9 3.9c-3.5-.2-7-.4-10.6-.8l-11.5-1.2a49.8 49.8 0 0 0-5.7-.5z" class="cls-6"/><path d="M248.7 174.3a2 2 0 0 1-2-.8l-2.3-2.2a28.7 28.7 0 0 0-10.3-5l-2.7-.8a3 3 0 0 1 .2-1.5l.7-5.8a61.3 61.3 0 0 0 .1-8.2c0-2-.2-3.9-.4-5.8l-.5-4-.6-5.1-.7-5.6a2.7 2.7 0 0 0-.1-.6 1.6 1.6 0 0 1 .8-2l.8-.5c.7-.5.9-.9.7-1.5a1.8 1.8 0 0 0-1.5-1.3 4.7 4.7 0 0 1-1.4 0 11.9 11.9 0 0 0-2.4-4.2c.4-.5 1-.4 1.4-.5l3.5-.5a1 1 0 0 1 1.2.6 9.7 9.7 0 0 1 1.6 4.5c.3 3 .9 6 1.5 9A210.6 210.6 0 0 0 246 166l2 5.2a9.8 9.8 0 0 1 .7 3z" class="cls-5"/><path d="M212.7 362.3c-.7 1.7-1 3.6-1.8 5.4a1.9 1.9 0 0 1-.2.5 5.4 5.4 0 0 0-.9 2.1 17 17 0 0 1-1.9 4.4 11.5 11.5 0 0 0-1.3 3.3 1 1 0 0 1-1 1l-3.4.6c-2.2.5-4.5 1-6.7 1.2a32 32 0 0 1-5.7.3c-2-.1-2.3-1.4-2.6-2.7a13.8 13.8 0 0 1-.1-4.8 8.5 8.5 0 0 0-.3-3.8 12 12 0 0 1-.5-4.4l1.3-.1 8.6-1c4-.6 8.1-1 12.2-1.5a41.1 41.1 0 0 1 4.3-.5z" class="cls-11"/><path d="M212.7 362.3a41.1 41.1 0 0 0-4.3.4l-12.2 1.5-8.6 1-1.3.2a14.4 14.4 0 0 1-1.5-7.6 11.3 11.3 0 0 1 1.3-4.2h4.3a100.8 100.8 0 0 0 14.5-1.1 53 53 0 0 0 11.8-3.3l.9-.4a31.2 31.2 0 0 1-.7 3.5 32.5 32.5 0 0 1-2.2 6.8 10.3 10.3 0 0 1-2 3.2z" class="cls-6"/><path d="M148.3 363.8a49.8 49.8 0 0 1 5.7.4l11.6 1.3c3.5.4 7 .6 10.6.8a24.5 24.5 0 0 1-1 6 55.3 55.3 0 0 1-2.2 6.4.8.8 0 0 1-.8.7 28.5 28.5 0 0 1-3.9.1 39.5 39.5 0 0 1-7.6-.8 25.1 25.1 0 0 1-3.6-.8 8 8 0 0 1-4-3 31.1 31.1 0 0 1-3.5-7l-1.2-3.3a1.6 1.6 0 0 1 0-.8z" class="cls-11"/><path d="M138.7 144.7l-3.2-.5a1.4 1.4 0 0 1-1-.5 12.8 12.8 0 0 1-2.2-2.3 12.7 12.7 0 0 1-.9-3 16.5 16.5 0 0 0-.6-2.3 11.8 11.8 0 0 1 3.1-6.7 7.8 7.8 0 0 1 5.4-2.7 6.7 6.7 0 0 1 6.9 7.5 17.4 17.4 0 0 1-1.6 5.4 9.1 9.1 0 0 1-5.9 5z" class="cls-9"/><path d="M200 245.5a2.4 2.4 0 0 1 .6-.9 1.7 1.7 0 0 1 1 .3 47 47 0 0 1 6.4 3c4 2.1 7.7 4.7 11.6 7a6.8 6.8 0 0 1-1 3.4 14 14 0 0 1-1.4 1.7c-2.3 2.3-4.9 4.4-7.4 6.6-.6-.7-8.2-17-9.8-21.1z" class="cls-7"/><path d="M182 141.3c-.5-.4.1-1.4 0-4.4a7.7 7.7 0 0 1-.3-2c.1-1.2-.2-2.3-.2-3.5.1-2.5-1-5.3-.5-7.8 0-.4 1-.6 1-1 .3-.3 1-.1 1.3-.2 3.8-.4 6.4 1.1 7.6 4.4 1.7 4.3 1.5 8.6-1.2 12.5l-.2.3a2.5 2.5 0 0 0-1.6 0c-1.9.7.1-.3-1.9.7l-2 1a2 2 0 0 1-2 0zM167.9 157.2a12.6 12.6 0 0 1-1.3 5 7.3 7.3 0 0 0-.3 1 3 3 0 0 1-1.1 1.8l-2 1.7a2.8 2.8 0 0 1-4.1-.4 9.1 9.1 0 0 0-1.2-1.4l-2.8-3.8-.6-.8a2.8 2.8 0 0 1-.2-3.4 3.3 3.3 0 0 1 3.5-1.7 7.5 7.5 0 0 1 2.3.8l.8.5 1.6-1.6a3.2 3.2 0 0 1 3-1 2.4 2.4 0 0 1 2 2l.4 1.3zM202 147.2a3.7 3.7 0 0 0 1 0 2.3 2.3 0 0 1 2.5.8 3.2 3.2 0 0 1 1.3 2.6 7 7 0 0 1-.5 2.2L205 156a1.6 1.6 0 0 1-.7.6 8.8 8.8 0 0 1-5.5 1.5l-1.3-.1a16.1 16.1 0 0 1-2.2-1.9 4 4 0 0 1-1-4 2.8 2.8 0 0 1 2.8-2 6.3 6.3 0 0 1 2 .2zM143.3 161a7.4 7.4 0 0 0-2 1 14 14 0 0 1-5 2.2 7.4 7.4 0 0 1-1.3.1 1.6 1.6 0 0 1-1.4-.6 1.4 1.4 0 0 0-.3-.3 2.8 2.8 0 0 1-.3-4 6.6 6.6 0 0 1 1.2-1 14.5 14.5 0 0 0 2.2-1.8 1.3 1.3 0 0 1 .6-.4 4.1 4.1 0 0 0 1.5-.6 4.9 4.9 0 0 1 2.6-1.1 10.5 10.5 0 0 1 2.6 1.3 2.5 2.5 0 0 1 .6 4l-1 1.2zM186.3 162.6a1.9 1.9 0 0 0-1.6.3 1.5 1.5 0 0 1-.6.3 8.2 8.2 0 0 1-.9-5.2 18.2 18.2 0 0 0 0-3l2.4-.8a4.5 4.5 0 0 1 1.8-.4 3 3 0 0 1 2.6 1.9 1.7 1.7 0 0 1 0 1 9.8 9.8 0 0 1-1.8 3.5c-.6.7-1.4 1.5-2 2.4zM194.8 112.4h-3.6l.4-3.7a12.8 12.8 0 0 0 .2-3.1 5.5 5.5 0 0 1 .7-3.7 16.8 16.8 0 0 1 2.3 10.5z" class="cls-9"/><path d="M224 124.2l-4.6-1-1-4a5.2 5.2 0 0 1 5 .4.8.8 0 0 1 .4.7l.1 4z" class="cls-6"/><path d="M248.8 174.7c.2 0 .3 0 .4.2a.3.3 0 0 1 0 .3c-.3 0-.4-.2-.4-.5zM123.7 247.9h.1z" class="cls-5"/><path d="M149.1 193.4a11 11 0 0 1 8.4.8 14.7 14.7 0 0 1 2 1.5l5.8 4.6a30.4 30.4 0 0 0 8.4 4.7 22.6 22.6 0 0 0 14.7.2 40.3 40.3 0 0 0 7-3 6.1 6.1 0 0 0 3.5-5.8 8.6 8.6 0 0 1 0-1.4 1.4 1.4 0 0 1 1.5-1.3 1.3 1.3 0 0 1 1.4 1.2 8.8 8.8 0 0 1-1.5 7 12.5 12.5 0 0 1-2.6 2.7 5.4 5.4 0 0 0-2.1 3.3 34.9 34.9 0 0 1-2.8 7.4l-2.9 6.2a32.1 32.1 0 0 1-19.2 17.9 10.4 10.4 0 0 1-6 .2 7.6 7.6 0 0 1-3.2-1.6 63 63 0 0 1-6.7-6 5.2 5.2 0 0 1-.8-1.1c-.8-1.4-1.7-2.8-2.4-4.3a25 25 0 0 1-2.3-8.3c-.5-3.6-.3-7.1-.5-10.7a49.3 49.3 0 0 1 .5-8.4 15.1 15.1 0 0 0-.2-5.2.5.5 0 0 1 0-.6zm29.4 37.2a9.6 9.6 0 0 0 2.3-2.1 55.3 55.3 0 0 0 6.6-10 38 38 0 0 0 3.4-8.7 4.2 4.2 0 0 0 .3-1.6 1.9 1.9 0 0 0-.4 0 48.4 48.4 0 0 1-14.4.8c-5.2-.3-10.3-1.2-15.4-2l-7.7-.7c-.3 0-.7-.2-1 0a15.8 15.8 0 0 0-.1 5c.2 2.2.7 4.4.8 6.7a2.7 2.7 0 0 0 .6 1.7 5.5 5.5 0 0 0 0 .6 28.9 28.9 0 0 0 2.2 7 16.3 16.3 0 0 0 8 8.2 8.5 8.5 0 0 0 4.1.9 10.1 10.1 0 0 0 4-1.1 35.4 35.4 0 0 0 6.7-4.7zm-26.6-29.4l4 1.5a6.5 6.5 0 0 0 1.7.4 13.2 13.2 0 0 1 2.7.5 8.7 8.7 0 0 0 3.3.3 1.3 1.3 0 0 0 .8-.3 24.1 24.1 0 0 1-3.8-2.8l-2.4-2a10.8 10.8 0 0 0-2.8-1.7 5 5 0 0 0-2.2-.5z" class="cls-2"/><path d="M187.4 195a3.8 3.8 0 0 1-1.8-.4 11.6 11.6 0 0 1-2.3-2 5 5 0 0 0-2.3-1.6c-.3 0-.4-.3-.4-.6a2.9 2.9 0 0 1 1.4-3.6c1.3 1.5 3 2.7 4.2 4.4a6 6 0 0 1 1.2 3.9z" class="cls-2"/><path d="M186.4 171.2l.2.3z" class="cls-9"/><path fill="#fc70e7" d="M153.5 219.7a2.7 2.7 0 0 1-.7-1.7c0-2.3-.5-4.5-.8-6.8a15.8 15.8 0 0 1 .2-4.8 117.4 117.4 0 0 1 8.7.7c5.1.7 10.2 1.6 15.4 2a48.4 48.4 0 0 0 14.4-.9 1.9 1.9 0 0 1 .3 0 4.2 4.2 0 0 1-.2 1.6 38 38 0 0 1-3.5 8.7 55.3 55.3 0 0 1-6.5 10 9.6 9.6 0 0 1-2.3 2.1 34.1 34.1 0 0 0-3-2.5 41.4 41.4 0 0 0-10.2-6.2 29.5 29.5 0 0 0-11.8-2.2z"/><path fill="#fb01d8" d="M153.5 219.7a29.5 29.5 0 0 1 11.8 2.2 41.4 41.4 0 0 1 10.2 6.2 34.1 34.1 0 0 1 3 2.5 35.4 35.4 0 0 1-6.8 4.7 10.1 10.1 0 0 1-4 1.1 8.5 8.5 0 0 1-4.1-.9 16.3 16.3 0 0 1-8-8.1 28.9 28.9 0 0 1-2-7 5.5 5.5 0 0 1-.1-.7z"/><path d="M152 201.2l1.2-4.6a5 5 0 0 1 2.2.5 10.8 10.8 0 0 1 2.8 1.7l2.4 2a24.1 24.1 0 0 0 3.9 2.8 1.3 1.3 0 0 1-.8.3 8.7 8.7 0 0 1-3.4-.3 13.2 13.2 0 0 0-2.7-.5 6.5 6.5 0 0 1-1.7-.4l-4-1.5z" class="cls-9"/></svg>
