<svg xmlns="http://www.w3.org/2000/svg" width="24" height="24"><path d="M8.32 21.97a.55.55 0 0 1-.26-.32c-.03-.15-.06.1.6-4.1l.67-3.85c.13-.17.1-.17 1.6-.18l2.2-.12c3.25-.45 5.26-2.36 5.96-5.66l.1-.4.15.1c1.03.78 1.38 2.22 1 4.14-.46 2.3-1.68 3.8-3.58 4.46-.8.28-1.5.4-2.7.42-.8.04-.82.04-1.05.2-.17.17-.16.14-.55 2.55l-.4 2.35a.8.8 0 0 1-.37.38l-.1.07H10c-1.3 0-1.62 0-1.68-.03m-4.5-2.23c-.2-.1-.32-.27-.32-.47A1153.8 1153.8 0 0 1 6.18 2.5c.1-.18.32-.37.5-.44L6.83 2h3.53l4.64.2c2.62.55 3.82 2.3 3.37 4.93-.5 2.93-1.98 4.67-4.5 5.3a11.6 11.6 0 0 1-3.14.27c-1.3 0-1.4.01-1.67.15-.26.15-.47.42-.56.75-.04.07-.27 1.47-.53 3.1a241.3 241.3 0 0 0-.47 3.02l-.03.06H5.7c-1.58 0-1.8 0-1.87-.04z"/></svg>