<svg xmlns="http://www.w3.org/2000/svg" width="24" height="24"><path d="M12 2a10 10 0 1 1 0 20 10 10 0 0 1-9.64-7.27L6.2 16.3a2.84 2.84 0 0 0 2.78 2.27c1.56 0 2.83-1.27 2.83-2.83v-.13l3.4-2.43h.08c2.08 0 3.77-1.7 3.77-3.77s-1.7-3.77-3.77-3.77a3.8 3.8 0 0 0-3.78 3.77v.05l-2.37 3.46-.16-.01a2.8 2.8 0 0 0-1.59.49L2 11.2C2.43 6.05 6.73 2 12 2M8.28 17.17c.8.33 1.72-.04 2.05-.84s-.05-1.7-.83-2.04l-1.28-.53a2.1 2.1 0 0 1 1.56.03c.53.2.94.62 1.15 1.15.22.52.22 1.1 0 1.62-.43 1.08-1.7 1.6-2.78 1.15a2.1 2.1 0 0 1-1.09-1.04l1.22.5m9.52-7.75c0 1.4-1.13 2.52-2.52 2.52a2.52 2.52 0 0 1-2.51-2.52 2.5 2.5 0 0 1 2.51-2.51 2.52 2.52 0 0 1 2.52 2.51m-4.4 0c0 1.04.84 1.9 1.9 1.9 1.04 0 1.88-.85 1.88-1.9s-.84-1.9-1.88-1.9c-1.05 0-1.9.85-1.9 1.9z"/></svg>