<svg xmlns="http://www.w3.org/2000/svg" width="24" height="24"><path d="M22.46 6c-.77.35-1.6.58-2.46.7a4.3 4.3 0 0 0 1.88-2.38c-.83.5-1.75.85-2.72 1.05A4.2 4.2 0 0 0 16 4a4.3 4.3 0 0 0-4.27 4.29c0 .34.04.67.1.98A12.2 12.2 0 0 1 3 4.79a4.24 4.24 0 0 0 1.32 5.71c-.7 0-1.37-.2-1.95-.5v.03a4.3 4.3 0 0 0 3.44 4.21 4.22 4.22 0 0 1-1.93.07 4.28 4.28 0 0 0 4 2.98 8.52 8.52 0 0 1-5.33 1.84 8.7 8.7 0 0 1-1.02-.06A12.12 12.12 0 0 0 8.12 21c7.88 0 12.2-6.54 12.2-12.2l-.01-.56a8.57 8.57 0 0 0 2.14-2.23z"/></svg>